<svg width="49" height="48" viewBox="0 0 49 48" fill="none" xmlns="http://www.w3.org/2000/svg">
<path opacity="0.5" d="M24.5 34C32.232 34 38.5 27.732 38.5 20C38.5 12.268 32.232 6 24.5 6C16.768 6 10.5 12.268 10.5 20C10.5 27.732 16.768 34 24.5 34Z" fill="#182A79"/>
<path d="M19.704 16.426C19.442 13.508 17.192 10.79 16.1 9.79402L15.496 9.27802C18.0159 7.15604 21.2057 5.99476 24.5 6.00002C27.6 6.00002 30.46 7.00602 32.78 8.71202C33.108 9.70602 32.484 11.784 31.83 12.778C31.59 13.138 31.054 13.586 30.464 14.01C29.132 14.966 27.454 15.44 26.6 17.2C26.386 17.6431 26.3446 18.1501 26.484 18.622C26.568 18.93 26.622 19.264 26.624 19.592C26.624 20.648 25.556 21.412 24.5 21.4C21.75 21.37 19.95 19.154 19.704 16.426ZM26.512 28.788C27.894 26.18 32.506 26.18 32.506 26.18C37.31 26.13 37.96 23.212 38.394 21.74C38.0105 24.7931 36.6324 27.635 34.4725 29.8267C32.3126 32.0184 29.4912 33.4379 26.444 33.866C25.992 32.916 25.458 30.774 26.512 28.786" fill="#182A79"/>
<path fill-rule="evenodd" clip-rule="evenodd" d="M36.508 3.00001C36.7732 2.70411 37.1449 2.52549 37.5416 2.50337C37.9383 2.48124 38.3276 2.61742 38.624 2.88201C40.9471 4.95525 42.8053 7.49651 44.0765 10.3389C45.3477 13.1812 46.0032 16.2603 46 19.374C46 30.876 37.222 40.33 26 41.4V42.5H28.5C28.8978 42.5 29.2794 42.658 29.5607 42.9394C29.842 43.2207 30 43.6022 30 44C30 44.3978 29.842 44.7794 29.5607 45.0607C29.2794 45.342 28.8978 45.5 28.5 45.5H20.5C20.1022 45.5 19.7207 45.342 19.4394 45.0607C19.158 44.7794 19 44.3978 19 44C19 43.6022 19.158 43.2207 19.4394 42.9394C19.7207 42.658 20.1022 42.5 20.5 42.5H23V41.482C20.0361 41.3681 17.1255 40.658 14.4421 39.3941C11.7587 38.1303 9.35752 36.3386 7.38201 34.126C7.24935 33.9794 7.14697 33.808 7.08077 33.6217C7.01458 33.4354 6.98586 33.2379 6.99629 33.0404C7.00671 32.843 7.05607 32.6496 7.14152 32.4713C7.22696 32.293 7.34682 32.1333 7.49418 32.0015C7.64155 31.8697 7.81352 31.7683 8.00021 31.7032C8.1869 31.6381 8.38462 31.6105 8.58199 31.6221C8.77937 31.6337 8.97251 31.6841 9.15031 31.7706C9.32811 31.8571 9.48706 31.9779 9.61801 32.126C11.4101 34.1341 13.6068 35.7402 16.0638 36.8388C18.5209 37.9374 21.1826 38.5035 23.874 38.5C28.9465 38.5 33.8113 36.485 37.3981 32.8981C40.985 29.3113 43 24.4465 43 19.374C43.0033 16.6824 42.4368 14.0206 41.3379 11.5636C40.239 9.10652 38.6325 6.90987 36.624 5.11801C36.4769 4.98666 36.3571 4.82759 36.2716 4.6499C36.186 4.47221 36.1363 4.27939 36.1254 4.08248C36.1144 3.88557 36.1424 3.68843 36.2077 3.50234C36.273 3.31626 36.3744 3.14488 36.506 2.99801" fill="#182A79"/>
</svg>
