<svg width="49" height="48" viewBox="0 0 49 48" fill="none" xmlns="http://www.w3.org/2000/svg">
<path opacity="0.5" d="M7.256 10.164C6.5 11.24 6.5 14.44 6.5 20.834V23.982C6.5 35.258 14.978 40.732 20.298 43.054C21.74 43.684 22.462 44 24.5 44C26.54 44 27.26 43.684 28.702 43.054C34.022 40.73 42.5 35.26 42.5 23.982V20.834C42.5 14.438 42.5 11.24 41.744 10.164C40.99 9.09 37.984 8.06 31.97 6.002L30.824 5.61C27.69 4.536 26.124 4 24.5 4C22.878 4 21.31 4.536 18.176 5.61L17.03 6C11.016 8.06 8.01 9.09 7.256 10.164Z" fill="#182A79"/>
<path d="M30.62 21C30.8852 20.703 31.0216 20.3127 30.9991 19.9152C30.9766 19.5176 30.797 19.1452 30.5 18.88C30.2029 18.6148 29.8127 18.4784 29.4151 18.5009C29.0176 18.5234 28.6452 18.703 28.38 19L22.358 25.748L20.618 23.8C20.3521 23.5062 19.9807 23.3295 19.5849 23.3086C19.1891 23.2877 18.8012 23.4243 18.5058 23.6885C18.2104 23.9527 18.0316 24.3231 18.0084 24.7187C17.9852 25.1143 18.1195 25.5031 18.382 25.8L21.238 29C21.3787 29.1576 21.5511 29.2837 21.744 29.3701C21.9368 29.4564 22.1457 29.5011 22.357 29.5011C22.5683 29.5011 22.7772 29.4564 22.97 29.3701C23.1629 29.2837 23.3353 29.1576 23.476 29L30.62 21Z" fill="#182A79"/>
</svg>
