<svg width="49" height="48" viewBox="0 0 49 48" fill="none" xmlns="http://www.w3.org/2000/svg">
<path opacity="0.5" d="M44.176 22.252L43.718 27.124C42.962 35.148 42.584 39.162 40.218 41.58C37.856 44 34.312 44 27.22 44H21.78C14.69 44 11.146 44 8.78 41.58C6.414 39.16 6.038 35.148 5.282 27.124L4.822 22.252C4.462 18.428 4.282 16.514 4.938 15.724C5.10291 15.518 5.30725 15.347 5.53905 15.221C5.77086 15.095 6.02548 15.0164 6.288 14.99C7.24 14.906 8.434 16.266 10.824 18.986C12.06 20.394 12.678 21.096 13.366 21.206C13.7503 21.2659 14.1436 21.2029 14.49 21.026C15.128 20.706 15.55 19.836 16.4 18.098L20.874 8.93C22.478 5.644 23.28 4 24.5 4C25.72 4 26.522 5.644 28.126 8.93L32.6 18.098C33.448 19.838 33.872 20.706 34.51 21.026C34.862 21.204 35.25 21.266 35.634 21.206C36.322 21.096 36.94 20.394 38.176 18.986C40.566 16.266 41.76 14.906 42.712 14.99C42.9745 15.0164 43.2291 15.095 43.4609 15.221C43.6928 15.347 43.8971 15.518 44.062 15.724C44.716 16.514 44.536 18.428 44.176 22.252Z" fill="#182A79"/>
<path d="M26.404 25.398L26.208 25.046C25.448 23.682 25.068 23 24.5 23C23.932 23 23.552 23.68 22.792 25.046L22.596 25.398C22.38 25.786 22.272 25.978 22.104 26.106C21.934 26.234 21.724 26.282 21.304 26.376L20.924 26.464C19.448 26.798 18.71 26.964 18.534 27.528C18.358 28.094 18.862 28.682 19.868 29.858L20.128 30.162C20.414 30.496 20.558 30.662 20.622 30.87C20.686 31.078 20.664 31.3 20.622 31.746L20.582 32.152C20.43 33.722 20.354 34.508 20.812 34.856C21.272 35.204 21.964 34.886 23.346 34.25L23.702 34.086C24.096 33.906 24.292 33.814 24.5 33.814C24.708 33.814 24.904 33.906 25.298 34.086L25.654 34.25C27.036 34.888 27.728 35.204 28.188 34.856C28.648 34.508 28.57 33.722 28.418 32.152L28.378 31.746C28.336 31.3 28.314 31.078 28.378 30.87C28.442 30.664 28.586 30.496 28.872 30.162L29.132 29.858C30.138 28.682 30.642 28.094 30.466 27.528C30.29 26.964 29.552 26.798 28.076 26.464L27.696 26.376C27.276 26.282 27.066 26.236 26.896 26.106C26.728 25.978 26.62 25.786 26.404 25.398Z" fill="#182A79"/>
</svg>
